<?xml version="1.0" encoding="UTF-8"?>
<svg version="1.1" xmlns="http://www.w3.org/2000/svg" width="1600" height="1600">
<path d="M0 0 C528 0 1056 0 1600 0 C1600 528 1600 1056 1600 1600 C1072 1600 544 1600 0 1600 C0 1072 0 544 0 0 Z " fill="#FEECEC" transform="translate(0,0)"/>
<path d="M0 0 C528 0 1056 0 1600 0 C1600 528 1600 1056 1600 1600 C1072 1600 544 1600 0 1600 C0 1072 0 544 0 0 Z M139 194 C139 629.93 139 1065.86 139 1515 C149.00242767 1514.33442084 149.00242767 1514.33442084 154.6875 1512.9375 C164.1185469 1510.95201644 174.23883215 1510.90501107 183.3203125 1514.22265625 C186.79894087 1515.23176273 190.28446613 1515.48383934 193.875 1515.8125 C203.73496012 1516.81367588 211.38846253 1520.66390935 219 1527 C221.68050073 1525.94694614 222.9371087 1525.08385506 224.6875 1522.75 C229.98172431 1516.45416569 237.16053754 1512.53771805 245.33984375 1511.62890625 C258.19878961 1511.39155329 269.37882752 1513.93417829 279.4609375 1522.44921875 C281 1524 281 1524 282 1526 C296.63946907 1527.86886839 304.52333619 1524.33805076 316.05859375 1515.45751953 C318.59875847 1513.55047937 321.25964839 1511.91497573 324 1510.3125 C325.11375 1509.65701172 325.11375 1509.65701172 326.25 1508.98828125 C331.54465523 1505.99821926 337.03483262 1506.40281226 343 1507 C348.95513951 1508.90596099 353.63106591 1511.60970546 357 1517 C357.556875 1517.825 358.11375 1518.65 358.6875 1519.5 C360.02082345 1522.03966372 360.59625497 1524.17378482 361 1527 C362.98 1527 364.96 1527 367 1527 C367.01417969 1526.23816406 367.02835938 1525.47632813 367.04296875 1524.69140625 C367.41752189 1516.58283695 368.84619763 1510.44816631 374.48828125 1504.40625 C380.61127635 1498.96358769 386.50697733 1498.49253309 394.421875 1498.625 C400.23858392 1499.23461141 405.5541236 1501.14599609 409.44702148 1505.68847656 C413.67541803 1510.57383983 416.78260383 1511.84262221 423.18579102 1512.42895508 C424.67163696 1512.52599731 424.67163696 1512.52599731 426.1875 1512.625 C434.17610757 1513.36737947 440.50651222 1514.30635572 447.59765625 1518.20703125 C452.65501496 1519.87637079 457.89968615 1516.19944059 462.5 1514.125 C473.7529264 1509.22758693 486.11225657 1504.35177712 498.46484375 1507.66015625 C505.94584686 1510.61419338 511.61128962 1515.65554611 515.8125 1522.4375 C517.12657177 1524.51968797 517.12657177 1524.51968797 519 1526 C522.75759462 1526.67230195 526.22691294 1526.48338482 530 1526 C530.33 1525.01 530.66 1524.02 531 1523 C532.625 1522.0625 532.625 1522.0625 535 1521 C536.74925458 1519.98299153 538.48543995 1518.94626912 540.21875 1517.90234375 C547.48082225 1514.22353083 558.28354871 1514.97165254 565.93359375 1517.21875 C569.75199017 1518.66237814 573.46783582 1520.3526628 577.16796875 1522.07421875 C580.4244663 1523.13875657 581.7423681 1522.90783954 585 1522 C587.24239642 1520.84179188 587.24239642 1520.84179188 589.40625 1519.33984375 C590.22665771 1518.79690674 591.04706543 1518.25396973 591.89233398 1517.69458008 C593.18312866 1516.82482544 593.18312866 1516.82482544 594.5 1515.9375 C596.2922476 1514.75151365 598.08521735 1513.56661789 599.87890625 1512.3828125 C600.7517627 1511.8043457 601.62461914 1511.22587891 602.52392578 1510.62988281 C605.79844246 1508.47442301 609.10322018 1506.37404383 612.4375 1504.3125 C613.88962891 1503.40951172 613.88962891 1503.40951172 615.37109375 1502.48828125 C620.9128901 1499.35094929 625.65473108 1497.96289981 632 1499 C636.30508475 1501.3062954 636.30508475 1501.3062954 638 1504 C640.00705938 1510.74993185 638.71802071 1517.32669643 637 1524 C642.97844919 1524.31465522 646.49560042 1523.6020798 652 1521 C653.155 1520.773125 654.31 1520.54625 655.5 1520.3125 C659.80714337 1518.69732123 661.3463071 1516.53558809 664.1796875 1513.03515625 C668.67952022 1508.0042274 675.19502884 1504.55195941 681.92553711 1503.77880859 C699.60550033 1502.79902051 717.91394962 1506.7951872 732 1518 C735.99675487 1516.50776183 737.28299156 1514.31659445 739.375 1510.6875 C744.39268203 1502.56817065 750.74371819 1497.57177979 760 1495 C773.3706777 1493.45075271 785.42119524 1495.34578777 796.75 1502.8125 C799 1505 799 1505 800.5625 1508.484375 C801.84928118 1510.79511442 802.59402931 1511.80920167 805.00878906 1512.9440918 C807.41606046 1513.58189202 809.79121608 1514.04371039 812.25 1514.4375 C813.51070312 1514.67629883 813.51070312 1514.67629883 814.796875 1514.91992188 C816.85974472 1515.30670995 818.92939438 1515.65702932 821 1516 C821.34289062 1515.35933594 821.68578125 1514.71867187 822.0390625 1514.05859375 C826.98231432 1505.8888352 833.16258845 1501.96167564 842 1499 C849.05712291 1497.90164876 855.81327039 1499.10782727 862.72265625 1500.66015625 C865.1572072 1501.19914439 865.1572072 1501.19914439 868 1500 C881.45774261 1498.67621147 892.99472542 1499.52567058 905 1506 C905.69947754 1506.36931641 906.39895508 1506.73863281 907.11962891 1507.11914062 C919.29621876 1513.60113902 919.29621876 1513.60113902 923.1171875 1516.73828125 C926.9104417 1519.28023376 931.64747477 1518.71352873 936 1518 C938.91790525 1515.7495803 938.91790525 1515.7495803 941 1513 C944.55643971 1511.22178014 947.43402087 1510.81775322 951.375 1510.75 C956.43686111 1510.36478494 958.6554401 1509.21498662 962.19140625 1505.6875 C969.62670854 1498.75002573 979.17954521 1494.45944951 989.296875 1494.77734375 C1005.77118448 1496.13433167 1020.02550391 1508.64114015 1030.46875 1520.6953125 C1032.63710067 1522.54283577 1034.16564233 1522.856595 1037 1523 C1039.57397279 1521.86405356 1039.57397279 1521.86405356 1042 1520.125 C1047.13955611 1516.67186074 1051.1157029 1515.83126537 1057.2734375 1516.04296875 C1058.7584375 1516.07487305 1058.7584375 1516.07487305 1060.2734375 1516.10742188 C1062.33367534 1516.16061441 1064.39364327 1516.22563449 1066.453125 1516.30273438 C1073.11131203 1516.41946882 1076.43199948 1515.55490238 1082 1512 C1085.67578125 1511.20703125 1085.67578125 1511.20703125 1089.3125 1510.8125 C1093.81087206 1510.43356944 1093.81087206 1510.43356944 1098 1509 C1106.56586036 1507.86459234 1112.79732006 1509.77254325 1120.51171875 1513.40234375 C1124.83381812 1515.3818943 1129.23871289 1516.81978197 1133.76953125 1518.23828125 C1136 1519 1136 1519 1137 1520 C1140.83526909 1520.20546084 1144.66427275 1520.34582655 1148.50390625 1520.4296875 C1155.66456355 1520.69863238 1161.97562578 1521.98375052 1168 1526 C1171.12521833 1526.16699232 1171.12521833 1526.16699232 1174 1526 C1174.23074219 1524.97519531 1174.46148438 1523.95039062 1174.69921875 1522.89453125 C1175.02771251 1521.53362854 1175.35719211 1520.17296353 1175.6875 1518.8125 C1175.83638672 1518.13896484 1175.98527344 1517.46542969 1176.13867188 1516.77148438 C1177.34603375 1511.91836311 1179.06007024 1509.29464992 1183 1506 C1185.3396669 1504.83016655 1186.83391527 1504.8338759 1189.4375 1504.8125 C1190.21996094 1504.79832031 1191.00242187 1504.78414062 1191.80859375 1504.76953125 C1194 1505 1194 1505 1197 1507 C1198.09765625 1509.13671875 1198.09765625 1509.13671875 1199.0625 1511.6875 C1199.39894531 1512.57566406 1199.73539063 1513.46382812 1200.08203125 1514.37890625 C1201.19656508 1517.56125604 1202.14899041 1520.73779657 1203 1524 C1203.66 1524 1204.32 1524 1205 1524 C1205.37511719 1523.20335937 1205.75023437 1522.40671875 1206.13671875 1521.5859375 C1213.28794684 1506.77911258 1213.28794684 1506.77911258 1220 1504 C1231.003879 1502.19056674 1239.77849054 1508.68611026 1248.35253906 1514.75830078 C1250.12813663 1516.0965772 1251.80868877 1517.51260507 1253.4921875 1518.96484375 C1260.88976613 1525.64942698 1260.88976613 1525.64942698 1270.375 1527.6875 C1272.96381724 1527.44085698 1272.96381724 1527.44085698 1275 1527 C1275.226875 1526.05125 1275.45375 1525.1025 1275.6875 1524.125 C1277.46421767 1518.03694644 1279.6340973 1511.82819754 1284.75 1507.875 C1295.25156979 1505.04765429 1302.13899643 1508.77828757 1311.17041016 1513.90087891 C1315.9017183 1516.74319933 1320.27400932 1520.08223258 1323.96875 1524.1875 C1328.82750096 1527.09273253 1333.77375727 1526.41833116 1339.3125 1526.25 C1340.99569336 1526.22292969 1340.99569336 1526.22292969 1342.71289062 1526.1953125 C1345.47613447 1526.14827856 1348.23762698 1526.08256317 1351 1526 C1351.25249512 1525.24219238 1351.50499023 1524.48438477 1351.76513672 1523.70361328 C1352.10818848 1522.71087402 1352.45124023 1521.71813477 1352.8046875 1520.6953125 C1353.13968262 1519.71062988 1353.47467773 1518.72594727 1353.81982422 1517.71142578 C1355.76156389 1513.25032509 1358.67129883 1511.16435059 1363 1509 C1380.56705959 1506.81104463 1396.86737221 1516.57824814 1411 1526 C1413.02921669 1526.27401018 1413.02921669 1526.27401018 1415.23046875 1526.1953125 C1416.03291016 1526.18886719 1416.83535156 1526.18242188 1417.66210938 1526.17578125 C1418.49548828 1526.15902344 1419.32886719 1526.14226562 1420.1875 1526.125 C1421.4549707 1526.11146484 1421.4549707 1526.11146484 1422.74804688 1526.09765625 C1424.83215243 1526.07410703 1426.91611217 1526.03823647 1429 1526 C1429.14767822 1525.36030273 1429.29535645 1524.72060547 1429.44750977 1524.06152344 C1430.53762669 1519.62398161 1431.69238737 1516.65821191 1435.5625 1514.0625 C1443.15885621 1510.02129405 1451.57195337 1509.84280466 1460 1509 C1460 1075.05 1460 641.1 1460 194 C1024.07 194 588.14 194 139 194 Z " fill="#F7F6F6" transform="translate(0,0)"/>
<path d="M0 0 C435.93 0 871.86 0 1321 0 C1321 433.95 1321 867.9 1321 1315 C1315.72 1315.66 1310.44 1316.32 1305 1317 C1297.77483964 1319.11874225 1297.77483964 1319.11874225 1292.4375 1323.9375 C1291.129169 1326.72481386 1290.53314704 1328.99914383 1290 1332 C1278.99607093 1332.88920639 1271.59337204 1332.88596691 1262.30078125 1326.23828125 C1258.53676554 1323.6858777 1254.7343642 1321.89773195 1250.5625 1320.125 C1249.89976074 1319.83939209 1249.23702148 1319.55378418 1248.55419922 1319.25952148 C1240.21023053 1315.73084591 1230.94607545 1312.45747427 1221.9296875 1315.7578125 C1217.16850271 1318.79635757 1215.11293988 1322.43821496 1213.41796875 1327.64453125 C1213.15137451 1328.45897705 1212.88478027 1329.27342285 1212.61010742 1330.11254883 C1212.40877197 1330.73540771 1212.20743652 1331.3582666 1212 1332 C1191.0431727 1333.47547767 1191.0431727 1333.47547767 1184.51953125 1330.3125 C1182 1328.0625 1182 1328.0625 1179.65625 1325.59765625 C1176.28247877 1322.29830645 1172.62410618 1320.24074608 1168.5 1318 C1167.80390625 1317.61465088 1167.1078125 1317.22930176 1166.390625 1316.83227539 C1159.32080076 1312.97640299 1153.5914515 1311.76383998 1145.75 1313.875 C1139.91135491 1318.3866803 1137.66962407 1326.01793571 1136 1333 C1131.56404611 1333.99601459 1127.29102258 1334.33853944 1123.23242188 1331.96728516 C1119.9580101 1329.57505713 1116.92509685 1326.91229077 1113.859375 1324.26171875 C1110.24252714 1321.13499592 1106.46457319 1318.44486228 1102.4375 1315.875 C1101.34308594 1315.17117188 1100.24867187 1314.46734375 1099.12109375 1313.7421875 C1094.63055439 1311.23557855 1090.54255444 1309.71348018 1085.375 1309.75 C1084.27285156 1309.74226563 1084.27285156 1309.74226563 1083.1484375 1309.734375 C1078.20996849 1310.34494935 1075.57853013 1313.11672081 1072.52734375 1316.78125 C1069.7133025 1320.8691667 1067.87113023 1325.42152647 1066 1330 C1065.34 1330 1064.68 1330 1064 1330 C1063.73445313 1329.10796875 1063.46890625 1328.2159375 1063.1953125 1327.296875 C1062.84210938 1326.12640625 1062.48890625 1324.9559375 1062.125 1323.75 C1061.77695313 1322.58984375 1061.42890625 1321.4296875 1061.0703125 1320.234375 C1059.28376984 1314.70316892 1059.28376984 1314.70316892 1055 1311 C1050.83591778 1310.39956118 1047.07059359 1310.60434585 1043.125 1312.0625 C1037.7760434 1316.93948984 1036.72277386 1325.24330535 1035 1332 C1030.2145133 1332.46687675 1027.67291209 1331.55813543 1023.80859375 1328.97265625 C1019.57687717 1326.69685187 1014.94905594 1326.8844238 1010.26171875 1326.76049805 C996.97766575 1326.3744238 996.97766575 1326.3744238 991.0390625 1323.109375 C987.70870313 1321.29745534 984.12164711 1320.19877485 980.55078125 1318.94921875 C978 1318 978 1318 974.5625 1316.25 C969.42039514 1314.44575268 964.40236373 1314.57371333 959 1315 C958.34 1315.33 957.68 1315.66 957 1316 C953.56308623 1316.45023125 950.12180458 1316.83318769 946.67578125 1317.20703125 C942.90114729 1317.79830913 942.90114729 1317.79830913 939.75390625 1320.0703125 C935.00482335 1323.00413715 930.02435141 1322.31712058 924.625 1322.0625 C915.65283084 1321.67113585 908.28492689 1321.89132755 900.8125 1327.3125 C898 1329 898 1329 895.07421875 1328.3515625 C891.84665906 1326.93258454 890.33193187 1325.66241597 888 1323.0625 C879.06592344 1313.73671014 866.53104241 1301.82843117 853 1301 C852.23558594 1300.90332031 851.47117187 1300.80664062 850.68359375 1300.70703125 C839.08956416 1299.81258646 829.21599462 1306.49291386 820.57421875 1313.6171875 C819.69575232 1314.38884288 818.82678754 1315.17321246 818 1316 C814.91033493 1316.38055631 811.8242057 1316.72039566 808.72265625 1316.98632812 C804.01114333 1317.50931532 801.36993379 1318.67440745 798 1322 C797.67 1322.66 797.34 1323.32 797 1324 C789.75721759 1324.7310472 785.39324107 1324.25528267 779.5703125 1319.8515625 C774.63315962 1316.29501164 769.18493405 1313.59397213 763.75146484 1310.87792969 C762.27834359 1310.13952098 760.81903333 1309.37365027 759.36328125 1308.6015625 C749.50666141 1304.12560953 736.08782293 1304.80931011 725.55859375 1306.578125 C722.49446836 1307.08335484 720.2676927 1306.30258023 717.3125 1305.5078125 C708.02571415 1303.46848453 700.31258868 1305.1332621 692.16015625 1309.77734375 C687.48676745 1313.06431313 684.67330566 1317.00513942 682 1322 C665.66767372 1319.55186304 665.66767372 1319.55186304 661.75 1315.90625 C660.375 1313.5625 660.375 1313.5625 659.21484375 1311.1875 C656.48594143 1306.2737209 650.19439159 1303.64033419 645 1302 C632.48528278 1299.53441392 621.05590533 1299.57500373 609.859375 1306.01171875 C606.09623708 1308.62843624 603.48776115 1311.17448049 601 1315 C600.44570313 1315.80566406 599.89140625 1316.61132812 599.3203125 1317.44140625 C597.84821573 1319.60884827 596.41143343 1321.79275836 595 1324 C591.89375349 1322.83714874 589.26316679 1321.60229146 586.5625 1319.6875 C580.82787679 1316.01647226 574.45158432 1314.05311743 568 1312 C567.25105469 1311.74992187 566.50210938 1311.49984375 565.73046875 1311.2421875 C556.28685528 1308.59723067 542.61345769 1307.87260395 533.8828125 1312.734375 C533.26148438 1313.15203125 532.64015625 1313.5696875 532 1314 C531.29617188 1314.45890625 530.59234375 1314.9178125 529.8671875 1315.390625 C526.55016723 1317.71621117 523.91983872 1319.9513349 521.5625 1323.25 C518.48897967 1326.54841206 516.5183871 1326.94706323 512.18359375 1327.578125 C509.95881062 1327.90148533 509.95881062 1327.90148533 507.98828125 1329.0390625 C505.71955024 1330.13554154 504.24926001 1330.20830867 501.75 1330.125 C500.5125 1330.08375 499.275 1330.0425 498 1330 C498.23396484 1329.09121094 498.23396484 1329.09121094 498.47265625 1328.1640625 C499.89845953 1322.0264987 500.82847554 1316.14933738 499 1310 C497.04865998 1306.89876318 494.62592214 1305.41451375 491.0234375 1304.49609375 C478.74035711 1303.4464487 466.30039304 1314.49953098 456.63671875 1320.87890625 C455.84442871 1321.4011377 455.05213867 1321.92336914 454.23583984 1322.46142578 C452.16884091 1323.88381356 450.23258982 1325.40462957 448.26953125 1326.96484375 C445 1329 445 1329 441.9375 1328.96875 C437.82786363 1327.61344439 433.94588866 1325.92367929 430 1324.15625 C421.83826758 1321.01058229 410.75449351 1320.3350918 402.4375 1323.25 C399.22560593 1324.88514607 396.73044948 1326.67108721 394 1329 C393.34 1329 392.68 1329 392 1329 C391.67 1329.99 391.34 1330.98 391 1332 C387.13745498 1332.71475132 383.84316744 1332.90105351 380 1332 C377.26735457 1329.50667861 375.28560561 1326.83768404 373.125 1323.83984375 C369.08325913 1318.43847314 363.70471525 1314.28936832 357 1313 C343.80832779 1311.45921269 331.540095 1316.05025736 320 1322 C313.99967369 1325.05522277 313.99967369 1325.05522277 310.2421875 1324.84765625 C307.96540767 1324.0924867 306.08038931 1323.18337934 304 1322 C300.51138349 1320.43041998 297.53297943 1319.69576096 293.7265625 1319.39453125 C292.7365625 1319.29720703 291.7465625 1319.19988281 290.7265625 1319.09960938 C288.66830844 1318.9090783 286.6082562 1318.73701839 284.546875 1318.58398438 C276.98197642 1317.79310861 273.84742486 1315.69473224 269 1310 C261.67416177 1304.52667258 253.90895057 1303.86381679 245 1305 C237.7748701 1307.02394093 234.29441956 1311.55837067 230.25 1317.625 C228.39301691 1322.63885435 228.24916318 1327.69024672 228 1333 C226.02 1333 224.04 1333 222 1333 C221.79375 1332.01 221.5875 1331.02 221.375 1330 C219.39870686 1323.31309034 215.47192989 1318.47347672 209.4375 1315 C203.49116077 1312.36713293 197.37594536 1311.74402003 191 1313 C185.95613245 1315.20785227 181.55358248 1318.26394184 177.16015625 1321.55078125 C167.20305022 1328.98077687 159.40657825 1334.0238946 146.6875 1332.98046875 C142.34955396 1331.82705301 140.89858041 1330.35393173 138 1327 C129.37743446 1319.25382637 117.63368576 1317.14028119 106.375 1317.5859375 C97.31537497 1318.69741927 88.90526351 1324.07068962 83.2421875 1331.21875 C82.83226562 1331.8065625 82.42234375 1332.394375 82 1333 C78.10107754 1331.70035918 75.23135801 1329.82463844 72.0390625 1327.31640625 C65.95229162 1323.38682429 60.00571624 1322.32430664 52.9375 1321.4375 C43.72683856 1320.24617276 43.72683856 1320.24617276 39.83984375 1318.9296875 C29.98432255 1315.70325828 18.30192502 1318.19978311 8.42578125 1320.34375 C5 1321 5 1321 0 1321 C0 885.07 0 449.14 0 0 Z M75 21 C75 410.73 75 800.46 75 1202 C81.27 1202 87.54 1202 94 1202 C94 1205.96 94 1209.92 94 1214 C474.16 1214 854.32 1214 1246 1214 C1246 820.31 1246 426.62 1246 21 C859.57 21 473.14 21 75 21 Z " fill="#C99695" transform="translate(139,194)"/>
<path d="M0 0 C386.1 0 772.2 0 1170 0 C1170 48.18 1170 96.36 1170 146 C783.9 146 397.8 146 0 146 C0 97.82 0 49.64 0 0 Z " fill="#FEECEC" transform="translate(215,1249)"/>
<path d="M0 0 C179.52 0 359.04 0 544 0 C544 40.92 544 81.84 544 124 C363.82 124 183.64 124 -2 124 C-1.01 123.505 -1.01 123.505 0 123 C0 82.41 0 41.82 0 0 Z " fill="#F8DDDC" transform="translate(534,70)"/>
<path d="M0 0 C0.33 0 0.66 0 1 0 C1 61.71 1 123.42 1 187 C387.1 187 773.2 187 1171 187 C1171 189.64 1171 192.28 1171 195 C784.9 194.67 398.8 194.34 1 194 C1 257.69 1 321.38 1 387 C387.1 387 773.2 387 1171 387 C1171 388.98 1171 390.96 1171 393 C784.9 393 398.8 393 1 393 C1 458.01 1 523.02 1 590 C387.1 590 773.2 590 1171 590 C1171 591.98 1171 593.96 1171 596 C784.9 596 398.8 596 1 596 C1 666.95 1 737.9 1 811 C387.1 811 773.2 811 1171 811 C1171 813.31 1171 815.62 1171 818 C784.9 818 398.8 818 1 818 C1 886.97 1 955.94 1 1027 C387.1 1027 773.2 1027 1171 1027 C1171 1029.31 1171 1031.62 1171 1034 C784.9 1034 398.8 1034 1 1034 C1 1082.18 1 1130.36 1 1180 C387.1 1180 773.2 1180 1171 1180 C1171 1184.29 1171 1188.58 1171 1193 C790.84 1193 410.68 1193 19 1193 C19 1189.04 19 1185.08 19 1181 C12.73 1181 6.46 1181 0 1181 C0 791.27 0 401.54 0 0 Z " fill="#FCD0D1" transform="translate(214,215)"/>
<path d="M0 0 C180.18 0 360.36 0 546 0 C545.67 25.41 545.34 50.82 545 77 C365.48 77 185.96 77 1 77 C0.67 51.59 0.34 26.18 0 0 Z " fill="#FBD5D6" transform="translate(533,215)"/>
<path d="M0 0 C380.16 0 760.32 0 1152 0 C1152 3.96 1152 7.92 1152 12 C771.84 12 391.68 12 0 12 C0 8.04 0 4.08 0 0 Z " fill="#FCC3C2" transform="translate(233,1396)"/>
<path d="M0 0 C179.52 0 359.04 0 544 0 C544 6.6 544 13.2 544 20 C645.31 20 746.62 20 851 20 C851 20.33 851 20.66 851 21 C464.57 21 78.14 21 -320 21 C-320 20.67 -320 20.34 -320 20 C-214.4 20 -108.8 20 0 20 C0 13.4 0 6.8 0 0 Z " fill="#DEA8A7" transform="translate(534,194)"/>
<path d="M0 0 C130.35 0 260.7 0 395 0 C395 0.33 395 0.66 395 1 C393.75637942 1.00260437 393.75637942 1.00260437 392.4876352 1.00526136 C343.40361522 1.10817871 294.31960896 1.21626713 245.23561538 1.33111694 C239.34856464 1.34488734 233.46151379 1.35861431 227.57446289 1.37231445 C225.81637487 1.37640691 225.81637487 1.37640691 224.02276992 1.38058204 C205.01832973 1.42471668 186.01388355 1.46532972 167.00943286 1.50465261 C147.52461501 1.54504742 128.03980832 1.58920041 108.55500692 1.63687855 C96.52151037 1.66620424 84.48801471 1.69256094 72.45450365 1.71517897 C64.21464056 1.73094668 55.97479115 1.75034842 47.73494322 1.77266841 C42.97341847 1.78545716 38.21190431 1.79658576 33.45036697 1.80341911 C29.09871801 1.80969939 24.74710552 1.8205007 20.39547651 1.8350333 C18.81404649 1.83949225 17.23261059 1.84223343 15.65117455 1.84316199 C13.51575911 1.8446568 11.38045133 1.85218052 9.24505711 1.8613348 C8.05463387 1.86399284 6.86421064 1.86665089 5.63771397 1.86938947 C3.0758246 1.70041845 3.0758246 1.70041845 2 3 C1.90051711 5.86200907 1.86749965 8.69992324 1.8758015 11.56242901 C1.87452342 12.47757345 1.87324533 13.3927179 1.87192852 14.33559399 C1.86882886 17.44891546 1.87295111 20.56218765 1.87695217 23.67550755 C1.87621351 25.92101643 1.87503597 28.1665252 1.87345567 30.41203365 C1.87036481 36.6421158 1.87357973 42.87218183 1.87773381 49.10226278 C1.88079793 55.16210514 1.87916615 61.22194503 1.87765024 67.28178752 C1.87467789 79.83627597 1.87646492 92.39075978 1.88079453 104.94524765 C1.88516562 117.67596808 1.88736792 130.4066861 1.88689232 143.1374073 C1.88686363 143.94011814 1.88683493 144.74282898 1.88680537 145.56986439 C1.88664901 149.66255773 1.88645706 153.75525108 1.88625254 157.84794442 C1.88484332 187.50648539 1.88828182 217.16502422 1.89426994 246.82356453 C1.90018787 276.20450921 1.90404412 305.58545297 1.90512276 334.96639824 C1.90515717 335.8780977 1.90519158 336.78979715 1.90522704 337.72912387 C1.90554022 346.0558182 1.90582792 354.38251254 1.90608501 362.70920688 C1.90672449 383.41052299 1.90768387 404.11183908 1.90886021 424.81315517 C1.90891352 425.7559565 1.90896684 426.69875782 1.90902177 427.67012888 C1.91164472 473.55718588 1.91795286 519.44424226 1.92456055 565.33129883 C1.92685216 581.2596232 1.9291275 597.18794758 1.93133545 613.11627197 C1.9314724 614.10411792 1.93160935 615.09196386 1.93175045 616.10974454 C1.93809188 662.01285368 1.94181926 707.91596292 1.94487024 753.81907239 C1.94506831 756.79831079 1.9452675 759.77754918 1.94546692 762.75678758 C1.94678668 782.49998226 1.94806133 802.24317694 1.94930578 821.98637162 C1.95178243 861.27206079 1.95452412 900.55774995 1.95744783 939.8434391 C1.95758707 941.71442137 1.95772612 943.58540365 1.95786499 945.45638592 C1.96411988 1029.70798479 1.97345838 1113.95958322 1.98413086 1198.21118164 C1.98423079 1199.00025547 1.98433073 1199.78932929 1.98443369 1200.60231444 C1.98943439 1240.06820965 1.99461093 1279.53410484 2 1319 C3.32 1319.33 4.64 1319.66 6 1320 C5.67 1320.33 5.34 1320.66 5 1321 C3.35 1321 1.7 1321 0 1321 C0 885.07 0 449.14 0 0 Z " fill="#BE9A9A" transform="translate(139,194)"/>
<path d="M0 0 C0.66 0 1.32 0 2 0 C2 2.97 2 5.94 2 9 C0.02 9 -1.96 9 -4 9 C-4 7.35 -4 5.7 -4 4 C-3.67 4.66 -3.34 5.32 -3 6 C-2.34 6 -1.68 6 -1 6 C-0.67 4.02 -0.34 2.04 0 0 Z " fill="#CDACAC" transform="translate(365,1518)"/>
<path d="M0 0 C1.21236328 0.01353516 1.21236328 0.01353516 2.44921875 0.02734375 C3.37154297 0.04474609 3.37154297 0.04474609 4.3125 0.0625 C4.3125 3.0625 4.3125 3.0625 3.3125 5.0625 C0.3425 4.5675 0.3425 4.5675 -2.6875 4.0625 C-2.3575 3.4025 -2.0275 2.7425 -1.6875 2.0625 C-3.3375 2.3925 -4.9875 2.7225 -6.6875 3.0625 C-7.0175 2.4025 -7.3475 1.7425 -7.6875 1.0625 C-4.80538698 0.10179566 -2.98899956 -0.04331883 0 0 Z " fill="#F5F0EC" transform="translate(627.6875,1497.9375)"/>
<path d="M0 0 C6.19887485 -0.37952295 10.4477112 0.1647887 16 3 C16 3.66 16 4.32 16 5 C15.01 5 14.02 5 13 5 C13 4.34 13 3.68 13 3 C8.71 2.67 4.42 2.34 0 2 C0 1.34 0 0.68 0 0 Z " fill="#F9E8E8" transform="translate(1220,1503)"/>
<path d="M0 0 C2.475 0.495 2.475 0.495 5 1 C4.42415568 3.38564077 3.77772405 5.66682784 3 8 C2.34 8 1.68 8 1 8 C0.67 5.36 0.34 2.72 0 0 Z " fill="#C49EA0" transform="translate(1202,1516)"/>
<path d="M0 0 C0.68359375 1.765625 0.68359375 1.765625 1 4 C-0.21484375 5.921875 -0.21484375 5.921875 -1.9375 7.75 C-2.50339844 8.36359375 -3.06929687 8.9771875 -3.65234375 9.609375 C-4.31943359 10.29773437 -4.31943359 10.29773437 -5 11 C-5.33 10.34 -5.66 9.68 -6 9 C-4.4775751 5.42230149 -2.97069541 2.54631035 0 0 Z " fill="#F6E9E6" transform="translate(1358,1511)"/>
<path d="M0 0 C0.66 0.33 1.32 0.66 2 1 C-1.46735947 4.03393954 -5.52949826 5.9351577 -10 7 C-10.99 6.67 -11.98 6.34 -13 6 C-10.87959258 4.96966118 -8.75352092 3.95097146 -6.625 2.9375 C-5.44164062 2.36902344 -4.25828125 1.80054688 -3.0390625 1.21484375 C-2.03617187 0.81394531 -1.03328125 0.41304687 0 0 Z " fill="#F6E5E3" transform="translate(465,1512)"/>
<path d="M0 0 C2.46800047 1.15173355 4.04783565 2.04783565 6 4 C8.20250992 4.46006346 8.20250992 4.46006346 10.625 4.625 C11.44226563 4.69976563 12.25953125 4.77453125 13.1015625 4.8515625 C13.72804688 4.90054687 14.35453125 4.94953125 15 5 C15 5.33 15 5.66 15 6 C11.29017251 6.28783144 7.70048847 6.44725328 4 6 C1.3125 3.5625 1.3125 3.5625 0 1 C0 0.67 0 0.34 0 0 Z " fill="#C4A1A2" transform="translate(515,1520)"/>
<path d="M0 0 C0.5775 0.20625 1.155 0.4125 1.75 0.625 C-3.10359495 4.64176824 -8.29972335 3.90636159 -14.25 3.625 C-14.25 3.295 -14.25 2.965 -14.25 2.625 C-13.0125 2.50125 -11.775 2.3775 -10.5 2.25 C-7.9550701 1.94532529 -6.31219287 1.65609643 -4 0.5 C-2.25 -0.375 -2.25 -0.375 0 0 Z " fill="#CCACAC" transform="translate(1078.25,1512.375)"/>
<path d="M0 0 C0.99 0.495 0.99 0.495 2 1 C2.4140625 3.28515625 2.4140625 3.28515625 2.625 6.0625 C2.69976563 6.98160156 2.77453125 7.90070313 2.8515625 8.84765625 C2.92503906 9.91306641 2.92503906 9.91306641 3 11 C2.34 11 1.68 11 1 11 C-0.28317892 7.15046324 -0.06643637 4.05261865 0 0 Z " fill="#F5E6E5" transform="translate(637,1503)"/>
<path d="M0 0 C0.33 0 0.66 0 1 0 C1 2.97 1 5.94 1 9 C2.65 9 4.3 9 6 9 C6 9.33 6 9.66 6 10 C3.36 10 0.72 10 -2 10 C-1.34 6.7 -0.68 3.4 0 0 Z " fill="#C7A7A8" transform="translate(639,1514)"/>
<path d="M0 0 C-3.41139003 1.09651823 -6.20655581 0.94215473 -9.75 0.5625 C-11.22726562 0.40974609 -11.22726562 0.40974609 -12.734375 0.25390625 C-13.48203125 0.17011719 -14.2296875 0.08632812 -15 0 C-15 -0.33 -15 -0.66 -15 -1 C-4.44191344 -2.51708428 -4.44191344 -2.51708428 0 0 Z " fill="#CDAFAE" transform="translate(564,1515)"/>
<path d="M0 0 C0 0.99 0 1.98 0 3 C-6.93 2.505 -6.93 2.505 -14 2 C-14 1.67 -14 1.34 -14 1 C-12.04175306 0.83232136 -10.08339945 0.66588795 -8.125 0.5 C-6.48917969 0.36078125 -6.48917969 0.36078125 -4.8203125 0.21875 C-3.21670436 0.09437042 -1.60842449 0 0 0 Z " fill="#C9A5A5" transform="translate(1114,1506)"/>
<path d="M0 0 C1.17219543 0.78345715 2.33763668 1.57702836 3.5 2.375 C4.47453125 3.03628906 4.47453125 3.03628906 5.46875 3.7109375 C5.9740625 4.13632813 6.479375 4.56171875 7 5 C7 5.66 7 6.32 7 7 C5.02 6.34 3.04 5.68 1 5 C0.67 3.35 0.34 1.7 0 0 Z " fill="#FBF0EE" transform="translate(1320,1520)"/>
<path d="M0 0 C0.66 0.33 1.32 0.66 2 1 C1 5 1 5 0 9 C-0.66 9 -1.32 9 -2 9 C-1.125 2.25 -1.125 2.25 0 0 Z " fill="#F7E9E8" transform="translate(1278,1515)"/>
<path d="M0 0 C0.66 0.33 1.32 0.66 2 1 C0.8803014 2.00593243 -0.2459412 3.0045849 -1.375 4 C-2.00148438 4.556875 -2.62796875 5.11375 -3.2734375 5.6875 C-5 7 -5 7 -7 7 C-5.66667905 3.00003714 -3.5042173 2.16217663 0 0 Z " fill="#F9E8E8" transform="translate(600,1511)"/>
<path d="M0 0 C0.33 1.32 0.66 2.64 1 4 C-1.91517292 2.92598892 -3.77810176 2.22189824 -6 0 C-3.50907189 -1.24546405 -2.58919267 -0.7767578 0 0 Z " fill="#C59E9F" transform="translate(407,1499)"/>
<path d="M0 0 C-5.625 4 -5.625 4 -9 4 C-6.35287314 0.09233654 -4.86783735 -1.62261245 0 0 Z " fill="#C5A2A2" transform="translate(1363,1509)"/>
</svg>
